<?xml version="1.0" encoding="UTF-8"?><svg xmlns="http://www.w3.org/2000/svg" viewBox="0 0 192 18"><path d="m192,3.9c0-2.1-1.8-3.9-4.1-3.9h-30.1v3.9h14.9v14.1h4.4V3.9h14.9ZM14.9,0H4.1C1.8,0,0,1.7,0,3.9h14.9v14.1h4.4V3.9h14.9V0H14.9Zm91.3,12.7L83.7.6c-.7-.4-1.5-.6-2.3-.6-1.7,0-3.1,1.3-3.1,3v15h4.4V6.5c0-1.1,1.2-1.7,2.2-1.2l22.6,12.1c.7.4,1.5.6,2.3.6,1.7,0,3.1-1.3,3.1-3V0h-4.4v11.5c0,1.1-1.2,1.7-2.2,1.2Zm-56.1-1.5h21.9v-3.9h-21.9c-1.1,0-2,.9-2,1.9s.9,1.9,2,1.9Zm-2.8-11.1c-5.2,0-9.5,4-9.5,9s4.2,9,9.5,9h24.7v-3.9h-24.4c-3,0-5.4-2.3-5.4-5.1s2.4-5.1,5.4-5.1h24.4V0h-24.7Zm104.9,7.3h-33.5v3.9h33.5v-3.9Zm-33.5,10.7h29.5c2.2,0,4.1-1.7,4.1-3.9h-33.6v3.9Zm0-18v3.9h33.5c0-2.1-1.8-3.9-4.1-3.9h-29.5Z"/></svg>
