<svg viewBox="0 0 234 80" xmlns="http://www.w3.org/2000/svg" xmlns:xlink="http://www.w3.org/1999/xlink" width="234" height="80" fill="none" >
	<g>
		<path d="M93.332 47.8164L95.2324 47.8164C96.4264 47.7982 97.3652 47.4837 98.0488 46.873C98.7324 46.2624 99.0742 45.4375 99.0742 44.3984C99.0742 42.0651 97.9121 40.8984 95.5879 40.8984C94.4941 40.8984 93.6214 41.2106 92.9697 41.835C92.318 42.4593 91.9922 43.2865 91.9922 44.3164L89.4629 44.3164C89.4629 42.7396 90.0394 41.4294 91.1924 40.3857C92.3454 39.3421 93.8105 38.8203 95.5879 38.8203C97.4655 38.8203 98.9375 39.3171 100.004 40.3105C101.07 41.304 101.604 42.6849 101.604 44.4531C101.604 45.319 101.323 46.1576 100.763 46.9688C100.202 47.7799 99.4388 48.3861 98.4727 48.7871C99.5664 49.1335 100.412 49.7077 101.009 50.5098C101.606 51.3119 101.904 52.2917 101.904 53.4492C101.904 55.2357 101.321 56.653 100.154 57.7012C98.9876 58.7494 97.4701 59.2734 95.6016 59.2734C93.7331 59.2734 92.2132 58.7676 91.042 57.7559C89.8708 56.7441 89.2852 55.4089 89.2852 53.75L91.8281 53.75C91.8281 54.7982 92.1699 55.6367 92.8535 56.2656C93.5371 56.8945 94.4531 57.209 95.6016 57.209C96.8229 57.209 97.7572 56.89 98.4043 56.252C99.0514 55.6139 99.375 54.6979 99.375 53.5039C99.375 52.3464 99.0195 51.4577 98.3086 50.8379C97.5977 50.2181 96.5723 49.8991 95.2324 49.8809L93.332 49.8809L93.332 47.8164ZM115.303 39.0801L115.303 41.2266L114.838 41.2266C112.869 41.263 111.301 41.8464 110.135 42.9766C108.968 44.1068 108.294 45.6973 108.111 47.748C109.16 46.5449 110.59 45.9434 112.404 45.9434C114.136 45.9434 115.519 46.554 116.554 47.7754C117.588 48.9967 118.105 50.5736 118.105 52.5059C118.105 54.5566 117.547 56.1973 116.431 57.4277C115.314 58.6582 113.817 59.2734 111.939 59.2734C110.035 59.2734 108.49 58.542 107.305 57.0791C106.12 55.6162 105.527 53.7318 105.527 51.4258L105.527 50.4551C105.527 46.791 106.309 43.9906 107.872 42.0537C109.435 40.1169 111.762 39.1257 114.852 39.0801L115.303 39.0801ZM111.98 48.0488C111.115 48.0488 110.317 48.3086 109.588 48.8281C108.859 49.3477 108.353 49.9994 108.07 50.7832L108.07 51.7129C108.07 53.3535 108.439 54.6751 109.178 55.6777C109.916 56.6803 110.837 57.1816 111.939 57.1816C113.079 57.1816 113.974 56.7624 114.626 55.9238C115.278 55.0853 115.604 53.987 115.604 52.6289C115.604 51.2617 115.273 50.1566 114.612 49.3135C113.951 48.4704 113.074 48.0488 111.98 48.0488ZM133.582 50.5098C133.582 53.472 133.076 55.6732 132.064 57.1133C131.053 58.5534 129.471 59.2734 127.32 59.2734C125.197 59.2734 123.624 58.5693 122.604 57.1611C121.583 55.7529 121.054 53.6497 121.018 50.8516L121.018 47.4746C121.018 44.5488 121.523 42.375 122.535 40.9531C123.547 39.5312 125.133 38.8203 127.293 38.8203C129.435 38.8203 131.012 39.5062 132.023 40.8779C133.035 42.2497 133.555 44.3665 133.582 47.2285L133.582 50.5098ZM131.053 47.0508C131.053 44.9089 130.752 43.348 130.15 42.3682C129.549 41.3883 128.596 40.8984 127.293 40.8984C125.999 40.8984 125.055 41.3861 124.463 42.3613C123.87 43.3366 123.565 44.8359 123.547 46.8594L123.547 50.9062C123.547 53.0573 123.859 54.6455 124.483 55.6709C125.108 56.6963 126.053 57.209 127.32 57.209C128.569 57.209 129.496 56.7259 130.103 55.7598C130.709 54.7936 131.025 53.2715 131.053 51.1934L131.053 47.0508ZM136.945 42.375C136.945 41.4271 137.285 40.5977 137.964 39.8867C138.643 39.1758 139.465 38.8203 140.432 38.8203C141.38 38.8203 142.188 39.1735 142.858 39.8799C143.528 40.5863 143.863 41.418 143.863 42.375C143.863 43.3411 143.528 44.166 142.858 44.8496C142.188 45.5332 141.38 45.875 140.432 45.875C139.475 45.875 138.654 45.5332 137.971 44.8496C137.287 44.166 136.945 43.3411 136.945 42.375ZM140.432 44.125C140.924 44.125 141.339 43.9632 141.676 43.6396C142.013 43.3161 142.182 42.8945 142.182 42.375C142.182 41.8464 142.013 41.4111 141.676 41.0693C141.339 40.7275 140.924 40.5566 140.432 40.5566C139.93 40.5566 139.509 40.7367 139.167 41.0967C138.825 41.4567 138.654 41.8828 138.654 42.375C138.654 42.8672 138.825 43.2819 139.167 43.6191C139.509 43.9564 139.93 44.125 140.432 44.125Z" fill="currentColor" fill-rule="nonzero" />
		<g clip-path="url(#clipPath_0)" customFrame="url(#clipPath_0)">
			<rect width="80" height="80" x="0" y="0" />
			<path d="M64.9603 56.5761C64.8803 55.9681 64.3363 55.5361 63.7283 55.6001C42.8803 58.0961 23.6323 44.3201 19.1043 24.0321L27.0083 29.5041L28.2723 27.6801L17.3123 20.0801L10.5283 31.5681L12.4483 32.7041L17.0403 24.9281C21.5683 44.4321 39.0403 58.1281 58.8483 58.1281C60.5443 58.1281 62.2563 58.0321 63.9843 57.8241C64.5923 57.7441 65.0243 57.1841 64.9603 56.5761Z" fill="currentColor" fill-rule="nonzero" />
		</g>
		<g clip-path="url(#clipPath_1)" customFrame="url(#clipPath_1)">
			<rect width="80.000000" height="80.000000" x="154.000000" y="0.000000" />
			<path d="M166.768 56.5761C166.848 55.9681 167.392 55.5361 168 55.6001C188.848 58.0961 208.096 44.3201 212.624 24.0321L204.72 29.5041L203.456 27.6801L214.416 20.0801L221.2 31.5681L219.28 32.7041L214.688 24.9281C210.16 44.4321 192.688 58.1281 172.88 58.1281C171.184 58.1281 169.472 58.0321 167.744 57.8241C167.136 57.7441 166.704 57.1841 166.768 56.5761Z" fill="currentColor" fill-rule="nonzero" />
		</g>
	</g>
</svg>
