<svg viewBox="0 0 60 60" xmlns="http://www.w3.org/2000/svg" xmlns:xlink="http://www.w3.org/1999/xlink" width="60.000000" height="60.000000" fill="none">
	<rect id="credit 1" width="60.000000" height="60.000000" x="0.000000" y="0.000000" />
	<path id="Форма 25" d="M48.154 53.2492L11.8465 53.2492C11.4489 53.2492 11.1265 52.9268 11.1265 52.5292L11.1265 7.4368C11.1265 7.03924 11.449 6.7168 11.8465 6.7168L48.154 6.7168C48.5516 6.7168 48.874 7.03936 48.874 7.4368L48.874 52.5293C48.874 52.927 48.5517 53.2492 48.154 53.2492ZM12.5665 51.8092L47.434 51.8092L47.434 8.1568L12.5665 8.1568L12.5665 51.8092Z" fill="currentColor" fill-rule="nonzero" />
	<path id="Форма 26" d="M42.7524 24.2368L17.2498 24.2368C16.8522 24.2368 16.5298 23.9144 16.5298 23.5168L16.5298 12.7303C16.5298 12.3327 16.8522 12.0103 17.2498 12.0103L42.7524 12.0103C43.15 12.0103 43.4724 12.3327 43.4724 12.7303L43.4724 23.5168C43.4724 23.9144 43.1502 24.2368 42.7524 24.2368ZM17.9698 22.7968L42.0324 22.7968L42.0324 13.4503L17.9698 13.4503L17.9698 22.7968Z" fill="currentColor" fill-rule="nonzero" />
	<path id="Форма 27" d="M17.2498 33.136C16.8522 33.136 16.5298 32.8135 16.5298 32.416L16.5298 29.2742C16.5298 28.8766 16.8523 28.5542 17.2498 28.5542L21.4582 28.5542C21.8557 28.5542 22.1782 28.8766 22.1782 29.2742C22.1782 29.6718 21.8556 29.9942 21.4582 29.9942L17.9698 29.9942L17.9698 32.416C17.9698 32.8137 17.6473 33.136 17.2498 33.136Z" fill="currentColor" fill-rule="nonzero" />
	<path id="Форма 28" d="M24.3699 33.136C23.9723 33.136 23.6499 32.8135 23.6499 32.416L23.6499 29.2742C23.6499 28.8766 23.9725 28.5542 24.3699 28.5542L28.5799 28.5542C28.9774 28.5542 29.2999 28.8766 29.2999 29.2742C29.2999 29.6718 28.9774 29.9942 28.5799 29.9942L25.0899 29.9942L25.0899 32.416C25.0899 32.8137 24.7676 33.136 24.3699 33.136Z" fill="currentColor" fill-rule="nonzero" />
	<path id="Форма 29" d="M31.4895 33.136C31.092 33.136 30.7695 32.8135 30.7695 32.416L30.7695 29.2742C30.7695 28.8766 31.0921 28.5542 31.4895 28.5542L35.6979 28.5542C36.0955 28.5542 36.4179 28.8766 36.4179 29.2742C36.4179 29.6718 36.0955 29.9942 35.6979 29.9942L32.2095 29.9942L32.2095 32.416C32.2095 32.8137 31.8872 33.136 31.4895 33.136Z" fill="currentColor" fill-rule="nonzero" />
	<path id="Форма 30" d="M38.6111 33.136C38.2136 33.136 37.8911 32.8135 37.8911 32.416L37.8911 29.2742C37.8911 28.8766 38.2136 28.5542 38.6111 28.5542L42.8183 28.5542C43.2159 28.5542 43.5383 28.8766 43.5383 29.2742C43.5383 29.6718 43.2159 29.9942 42.8183 29.9942L39.3311 29.9942L39.3311 32.416C39.3311 32.8137 39.0086 33.136 38.6111 33.136Z" fill="currentColor" fill-rule="nonzero" />
	<path id="Форма 31" d="M17.2498 40.2111C16.8522 40.2111 16.5298 39.8886 16.5298 39.4911L16.5298 36.3494C16.5298 35.9518 16.8523 35.6294 17.2498 35.6294L21.4582 35.6294C21.8557 35.6294 22.1782 35.9518 22.1782 36.3494C22.1782 36.747 21.8556 37.0694 21.4582 37.0694L17.9698 37.0694L17.9698 39.4911C17.9698 39.8887 17.6473 40.2111 17.2498 40.2111Z" fill="currentColor" fill-rule="nonzero" />
	<path id="Форма 32" d="M24.3699 40.2111C23.9723 40.2111 23.6499 39.8886 23.6499 39.4911L23.6499 36.3494C23.6499 35.9518 23.9725 35.6294 24.3699 35.6294L28.5799 35.6294C28.9774 35.6294 29.2999 35.9518 29.2999 36.3494C29.2999 36.747 28.9774 37.0694 28.5799 37.0694L25.0899 37.0694L25.0899 39.4911C25.0899 39.8887 24.7676 40.2111 24.3699 40.2111Z" fill="currentColor" fill-rule="nonzero" />
	<path id="Форма 33" d="M31.4895 40.2111C31.092 40.2111 30.7695 39.8886 30.7695 39.4911L30.7695 36.3494C30.7695 35.9518 31.0921 35.6294 31.4895 35.6294L35.6979 35.6294C36.0955 35.6294 36.4179 35.9518 36.4179 36.3494C36.4179 36.747 36.0955 37.0694 35.6979 37.0694L32.2095 37.0694L32.2095 39.4911C32.2095 39.8887 31.8872 40.2111 31.4895 40.2111Z" fill="currentColor" fill-rule="nonzero" />
	<path id="Форма 34" d="M38.6111 47.1592C38.2136 47.1592 37.8911 46.8367 37.8911 46.4392L37.8911 36.3494C37.8911 35.9518 38.2136 35.6294 38.6111 35.6294L42.8183 35.6294C43.2159 35.6294 43.5383 35.9518 43.5383 36.3494C43.5383 36.747 43.2159 37.0694 42.8183 37.0694L39.3311 37.0694L39.3311 46.4392C39.3311 46.8369 39.0086 47.1592 38.6111 47.1592Z" fill="currentColor" fill-rule="nonzero" />
	<path id="Форма 35" d="M17.2498 47.1595C16.8522 47.1595 16.5298 46.8369 16.5298 46.4395L16.5298 43.2967C16.5298 42.8991 16.8523 42.5767 17.2498 42.5767L21.4582 42.5767C21.8557 42.5767 22.1782 42.8992 22.1782 43.2967C22.1782 43.6942 21.8556 44.0167 21.4582 44.0167L17.9698 44.0167L17.9698 46.4395C17.9698 46.8371 17.6473 47.1595 17.2498 47.1595Z" fill="currentColor" fill-rule="nonzero" />
	<path id="Форма 36" d="M24.3699 47.1595C23.9723 47.1595 23.6499 46.8369 23.6499 46.4395L23.6499 43.2967C23.6499 42.8991 23.9725 42.5767 24.3699 42.5767L28.5799 42.5767C28.9774 42.5767 29.2999 42.8992 29.2999 43.2967C29.2999 43.6942 28.9774 44.0167 28.5799 44.0167L25.0899 44.0167L25.0899 46.4395C25.0899 46.8371 24.7676 47.1595 24.3699 47.1595Z" fill="currentColor" fill-rule="nonzero" />
	<path id="Форма 37" d="M31.4895 47.1595C31.092 47.1595 30.7695 46.8369 30.7695 46.4395L30.7695 43.2967C30.7695 42.8991 31.0921 42.5767 31.4895 42.5767L35.6979 42.5767C36.0955 42.5767 36.4179 42.8992 36.4179 43.2967C36.4179 43.6942 36.0955 44.0167 35.6979 44.0167L32.2095 44.0167L32.2095 46.4395C32.2095 46.8371 31.8872 47.1595 31.4895 47.1595Z" fill="currentColor" fill-rule="nonzero" />
</svg>
