<svg viewBox="0 0 80 80" xmlns="http://www.w3.org/2000/svg" xmlns:xlink="http://www.w3.org/1999/xlink" width="80" height="80" fill="none">
	<g>
		<path d="M54.9601 63.088L24.0801 63.088C23.7441 63.088 23.4241 62.928 23.2161 62.672L18.1761 56.448L12.0161 56.256C11.4081 56.24 10.9281 55.744 10.9281 55.136L10.9281 47.088L9.28007 47.088L9.28007 55.072C9.28007 55.696 8.78407 56.192 8.16007 56.192L5.61607 56.192C4.99207 56.192 4.49607 55.696 4.49607 55.072L4.49607 44.4L2.99207 44.4C2.36807 44.4 1.87207 43.904 1.87207 43.28L1.87207 31.008C1.87207 30.384 2.36807 29.888 2.99207 29.888L8.30407 29.888C8.92807 29.888 9.42407 30.384 9.42407 31.008L9.42407 39.68L10.9281 39.68L10.9281 31.008C10.9281 30.384 11.4241 29.888 12.0481 29.888L18.2721 29.888L21.2641 23.312C21.4401 22.912 21.8401 22.656 22.2881 22.656L31.5841 22.656L31.5841 22.48L23.3281 22.48C22.7041 22.48 22.2081 21.984 22.2081 21.36L22.2081 18.256C22.2081 17.632 22.7041 17.136 23.3281 17.136L50.5601 17.136C51.1841 17.136 51.6801 17.632 51.6801 18.256L51.6801 21.216C51.6801 21.84 51.1841 22.336 50.5601 22.336L41.8241 22.336L41.8241 22.576L51.1841 22.576C51.5521 22.576 51.8881 22.752 52.0961 23.056L55.8401 28.4L62.9601 28.4C63.5841 28.4 64.0801 28.896 64.0801 29.52L64.0801 33.184L66.1121 33.184L66.1121 30.16C66.1121 29.536 66.6081 29.04 67.2321 29.04L74.0641 29.04C74.4001 29.04 74.7201 29.2 74.9441 29.456L76.9441 31.936C77.1041 32.128 77.1841 32.384 77.1841 32.64L77.1841 56.32C77.1841 56.608 77.0721 56.88 76.8801 57.088L74.8161 59.296C74.6081 59.52 74.3041 59.648 74.0001 59.648L67.3601 59.648C66.7361 59.648 66.2401 59.152 66.2401 58.528L66.2401 55.92L61.4081 55.92L55.8241 62.688C55.6161 62.944 55.2961 63.088 54.9601 63.088ZM24.6081 60.848L54.4321 60.848L60.0161 54.08C60.2241 53.824 60.5441 53.68 60.8801 53.68L67.3601 53.68C67.9841 53.68 68.4801 54.176 68.4801 54.8L68.4801 57.408L73.4881 57.408L74.9281 55.872L74.9281 33.072L73.5201 31.312L68.3521 31.312L68.3521 34.336C68.3521 34.96 67.8561 35.456 67.2321 35.456L62.9601 35.456C62.3361 35.456 61.8401 34.96 61.8401 34.336L61.8401 30.672L55.2481 30.672C54.8801 30.672 54.5441 30.496 54.3361 30.192L50.5921 24.848L40.7041 24.848C40.0801 24.848 39.5841 24.352 39.5841 23.728L39.5841 21.248C39.5841 20.624 40.0801 20.128 40.7041 20.128L49.4401 20.128L49.4401 19.408L24.4321 19.408L24.4321 20.272L32.6881 20.272C33.3121 20.272 33.8081 20.768 33.8081 21.392L33.8081 23.808C33.8081 24.432 33.3121 24.928 32.6881 24.928L22.9921 24.928L20.0001 31.504C19.8241 31.904 19.4241 32.16 18.9761 32.16L13.1681 32.16L13.1681 40.832C13.1681 41.456 12.6721 41.952 12.0481 41.952L8.30407 41.952C7.68007 41.952 7.18407 41.456 7.18407 40.832L7.18407 32.16L4.11207 32.16L4.11207 42.192L5.61607 42.192C6.24007 42.192 6.73607 42.688 6.73607 43.312L6.73607 53.984L7.04007 53.984L7.04007 46C7.04007 45.376 7.53607 44.88 8.16007 44.88L12.0321 44.88C12.6561 44.88 13.1521 45.376 13.1521 46L13.1521 54.08L18.7361 54.256C19.0561 54.272 19.3601 54.416 19.5681 54.672L24.6081 60.848Z" fill="currentColor" fill-rule="nonzero" />
	</g>
</svg>
