<svg viewBox="0 0 80 80" xmlns="http://www.w3.org/2000/svg" xmlns:xlink="http://www.w3.org/1999/xlink" width="80" height="80" fill="none">
	<g>
		<path d="M61.3921 71.024C57.0081 71.024 53.4401 67.456 53.4401 63.072C53.4401 61.424 53.9361 59.84 54.8961 58.496L54.8961 46.352L46.7681 46.352L46.7681 58.496C47.7121 59.84 48.2241 61.408 48.2241 63.072C48.2241 67.456 44.6561 71.024 40.2721 71.024C35.8881 71.024 32.3201 67.456 32.3201 63.072C32.3201 61.424 32.8161 59.84 33.7761 58.496L33.7761 46.352L16.3841 46.352C15.3601 46.352 14.3841 45.936 13.6161 45.184C13.6001 45.168 13.5841 45.152 13.5681 45.136L13.5521 45.12C13.5201 45.104 13.5041 45.072 13.4721 45.056L13.4401 45.024C13.4241 44.992 13.3921 44.976 13.3761 44.944C12.6401 44.176 12.2241 43.2 12.2241 42.192L12.2241 22.32C11.2801 20.976 10.7681 19.408 10.7681 17.744C10.7681 13.36 14.3361 9.79199 18.7201 9.79199C23.1041 9.79199 26.6721 13.36 26.6721 17.744C26.6721 19.392 26.1761 20.976 25.2161 22.32L25.2161 33.344L33.7441 33.344L33.7441 22.32C32.8001 20.976 32.2881 19.408 32.2881 17.744C32.2881 13.36 35.8561 9.79199 40.2401 9.79199C44.6241 9.79199 48.1921 13.36 48.1921 17.744C48.1921 19.392 47.6961 20.976 46.7361 22.32L46.7361 33.344L54.8641 33.344L54.8641 22.32C53.9201 20.976 53.4081 19.408 53.4081 17.744C53.4081 13.36 56.9761 9.79199 61.3601 9.79199C65.7441 9.79199 69.3121 13.36 69.3121 17.744C69.3121 19.392 68.8161 20.976 67.8561 22.32L67.8561 58.496C68.8001 59.84 69.3121 61.408 69.3121 63.072C69.3441 67.456 65.7761 71.024 61.3921 71.024ZM45.6481 44.112L56.0161 44.112C56.6401 44.112 57.1361 44.608 57.1361 45.232L57.1361 58.88C57.1361 59.136 57.0561 59.376 56.8961 59.568C56.0961 60.576 55.6801 61.792 55.6801 63.072C55.6801 66.224 58.2401 68.784 61.3921 68.784C64.5441 68.784 67.1041 66.224 67.1041 63.072C67.1041 61.792 66.6881 60.576 65.8881 59.568C65.7281 59.376 65.6481 59.136 65.6481 58.88L65.6481 21.968C65.6481 21.712 65.7281 21.472 65.8881 21.28C66.6881 20.272 67.1041 19.056 67.1041 17.776C67.1041 14.624 64.5441 12.064 61.3921 12.064C58.2401 12.064 55.6801 14.624 55.6801 17.776C55.6801 19.056 56.0961 20.272 56.8961 21.28C57.0561 21.472 57.1361 21.712 57.1361 21.968L57.1361 34.48C57.1361 35.104 56.6401 35.6 56.0161 35.6L45.6481 35.6C45.0241 35.6 44.5281 35.104 44.5281 34.48L44.5281 21.968C44.5281 21.712 44.6081 21.472 44.7681 21.28C45.5681 20.272 45.9841 19.056 45.9841 17.776C45.9841 14.624 43.4241 12.064 40.2721 12.064C37.1201 12.064 34.5601 14.624 34.5601 17.776C34.5601 19.056 34.9761 20.272 35.7761 21.28C35.9361 21.472 36.0161 21.712 36.0161 21.968L36.0161 34.48C36.0161 35.104 35.5201 35.6 34.8961 35.6L24.1281 35.6C23.5041 35.6 23.0081 35.104 23.0081 34.48L23.0081 21.968C23.0081 21.712 23.0881 21.472 23.2481 21.28C24.0481 20.272 24.4641 19.056 24.4641 17.776C24.4641 14.624 21.9041 12.064 18.7521 12.064C15.6001 12.064 13.0401 14.624 13.0401 17.776C13.0401 19.056 13.4561 20.272 14.2561 21.28C14.4161 21.472 14.4961 21.712 14.4961 21.968L14.4961 42.208C14.4961 42.752 14.7841 43.168 15.0241 43.408C15.0401 43.424 15.0561 43.44 15.0721 43.456C15.0881 43.472 15.0881 43.488 15.1041 43.488L15.1361 43.52C15.1521 43.536 15.1681 43.552 15.1841 43.568C15.4241 43.808 15.8401 44.112 16.4001 44.112L34.8961 44.112C35.5201 44.112 36.0161 44.608 36.0161 45.232L36.0161 58.88C36.0161 59.136 35.9361 59.376 35.7761 59.568C34.9761 60.576 34.5601 61.792 34.5601 63.072C34.5601 66.224 37.1201 68.784 40.2721 68.784C43.4241 68.784 45.9841 66.224 45.9841 63.072C45.9841 61.792 45.5681 60.576 44.7681 59.568C44.6081 59.376 44.5281 59.136 44.5281 58.88L44.5281 45.232C44.5281 44.608 45.0401 44.112 45.6481 44.112Z" fill="currentColor" fill-rule="nonzero" />
	</g>
</svg>
