<svg viewBox="0 0 60 60" xmlns="http://www.w3.org/2000/svg" xmlns:xlink="http://www.w3.org/1999/xlink" width="60.000000" height="60.000000" fill="none">
	<rect id="buy_2 1" width="60.000000" height="60.000000" x="0.000000" y="0.000000" />
	<g id="Сочетание 141">
		<path id="Форма 38" d="M39.1922 29.0522C39.1802 29.0042 39.1562 28.9562 39.1322 28.9082C38.9402 28.5602 38.5082 28.4282 38.1602 28.6202L37.3802 29.0522L23.9042 36.4322L3.31219 26.8082L19.0202 19.0082L20.5922 18.2282L24.8642 16.1042L26.4482 15.3242L38.5082 9.33622L56.7962 18.4202L44.7722 24.9962L44.2922 25.2602C43.9442 25.4522 43.8122 25.8842 44.0042 26.2322C44.0522 26.3282 44.1242 26.4002 44.1962 26.4602C44.4122 26.6282 44.7242 26.6642 44.9762 26.5202L45.3482 26.3162L58.6802 19.0202C58.9202 18.8882 59.0642 18.6482 59.0522 18.3722C59.0522 18.1082 58.8962 17.8562 58.6562 17.7362L38.8202 7.89622C38.6162 7.80022 38.3762 7.80022 38.1842 7.89622L24.7442 14.5682L18.5042 17.6642L1.33219 26.1842C1.08019 26.3042 0.924193 26.5562 0.936193 26.8322C0.936193 27.1082 1.10419 27.3602 1.35619 27.4802L23.6282 37.8722C23.7242 37.9202 23.8322 37.9442 23.9282 37.9442C24.0482 37.9442 24.1682 37.9202 24.2762 37.8602L37.7882 30.4682L38.8562 29.8802C39.1562 29.7242 39.2882 29.3642 39.1922 29.0522Z" fill="currentColor" fill-rule="nonzero" />
		<path id="Форма 39" d="M58.0078 31.9918L45.3598 38.9158L43.9198 39.7078L39.2278 42.2758L37.7878 43.0678L23.9038 50.6638L1.95581 40.4158C1.59581 40.2478 1.16381 40.4038 0.995814 40.7638C0.827814 41.1238 0.983814 41.5558 1.34381 41.7238L23.6158 52.1158C23.7118 52.1638 23.8198 52.1878 23.9158 52.1878C24.0358 52.1878 24.1558 52.1638 24.2638 52.1038L38.7118 44.1958L45.0838 40.7038L58.6918 33.2638C59.0398 33.0718 59.1718 32.6398 58.9798 32.2918C58.7998 31.9318 58.3558 31.7998 58.0078 31.9918Z" fill="currentColor" fill-rule="nonzero" />
		<path id="Форма 40" d="M39.228 28.7762C39.228 28.7642 39.228 28.7522 39.228 28.7402C39.228 28.7282 39.228 28.7162 39.228 28.7042C39.228 28.6922 39.216 28.6802 39.216 28.6562C39.216 28.6442 39.216 28.6442 39.204 28.6322C39.204 28.6202 39.192 28.6082 39.192 28.5842C39.192 28.5722 39.192 28.5722 39.18 28.5602C39.18 28.5482 39.168 28.5362 39.168 28.5242C39.168 28.5122 39.156 28.5122 39.156 28.5002C39.156 28.4882 39.144 28.4762 39.144 28.4642C39.144 28.4522 39.132 28.4402 39.12 28.4282C39.12 28.4162 39.108 28.4162 39.108 28.4042C39.096 28.3922 39.096 28.3802 39.084 28.3682C39.084 28.3562 39.072 28.3562 39.072 28.3442C39.06 28.3322 39.048 28.3202 39.036 28.3082L39.024 28.2962C39.012 28.2842 39 28.2722 38.988 28.2602C38.976 28.2482 38.964 28.2482 38.964 28.2362C38.952 28.2242 38.94 28.2242 38.94 28.2122C38.916 28.2002 38.904 28.1882 38.88 28.1762L20.592 18.2402L19.02 19.0202L37.38 29.0522L38.16 28.6202C38.508 28.4282 38.952 28.5602 39.132 28.9082C39.156 28.9562 39.18 29.0042 39.192 29.0522C39.216 28.9802 39.216 28.9202 39.228 28.8482C39.228 28.8242 39.228 28.8002 39.228 28.7762Z" fill="currentColor" fill-rule="nonzero" />
		<path id="Форма 41" d="M58.7039 23.8201C59.0519 23.6281 59.1839 23.1961 58.9919 22.8481C58.7999 22.5001 58.3679 22.3681 58.0199 22.5601L45.3599 29.4721L45.3599 31.1161L58.7039 23.8201Z" fill="currentColor" fill-rule="nonzero" />
		<path id="Форма 42" />
		<path id="Форма 43" d="M58.7039 28.5359C59.0519 28.3439 59.1839 27.9119 58.9919 27.5639C58.7999 27.2159 58.3679 27.0839 58.0199 27.2759L45.3599 34.1879L45.3599 35.8319L58.7039 28.5359Z" fill="currentColor" fill-rule="nonzero" />
		<path id="Форма 44" />
		<path id="Форма 45" d="M39.1322 33.6961C39.1922 33.8041 39.2162 33.9241 39.2162 34.0321L39.2162 28.8481C39.2162 28.9201 39.2042 28.9801 39.1802 29.0521C39.2762 29.3641 39.1322 29.7241 38.8322 29.8801L37.7642 30.4681L37.7642 33.6241L38.1362 33.4201C38.5082 33.2161 38.9522 33.3481 39.1322 33.6961Z" fill="currentColor" fill-rule="nonzero" />
		<path id="Форма 46" d="M39.1441 38.4239C39.2041 38.5199 39.2281 38.6279 39.2281 38.7359L39.2281 34.0439C39.2281 34.2959 39.0961 34.5479 38.8561 34.6799L37.7881 35.2679L37.7881 38.3519L38.1601 38.1479C38.5081 37.9439 38.9521 38.0759 39.1441 38.4239Z" fill="currentColor" fill-rule="nonzero" />
		<path id="Форма 47" d="M44.2079 26.4722L43.9199 26.3162L43.9199 30.6842L43.9199 35.4002L43.9199 35.4122L43.9199 39.6962L45.3599 38.9042L45.3599 35.8322L45.3599 34.1882L45.3599 31.1042L45.3599 29.4602L45.3599 26.3042L44.9879 26.5082C44.7239 26.6642 44.4239 26.6402 44.2079 26.4722Z" fill="currentColor" fill-rule="nonzero" />
		<path id="Форма 48" d="M38.8561 44.1361L44.9881 40.7761C45.0241 40.7521 45.0601 40.7281 45.0961 40.7041L38.7241 44.1961C38.7601 44.1721 38.8081 44.1601 38.8561 44.1361Z" fill="currentColor" fill-rule="nonzero" />
		<path id="Форма 49" d="M38.9399 28.272C38.9519 28.284 38.9639 28.284 38.9639 28.296C38.9519 28.284 38.9519 28.272 38.9399 28.272Z" fill="currentColor" fill-rule="nonzero" />
		<path id="Форма 50" d="M39.2041 28.668C39.2041 28.68 39.2161 28.692 39.2161 28.716C39.2041 28.692 39.2041 28.68 39.2041 28.668Z" fill="currentColor" fill-rule="nonzero" />
		<path id="Форма 51" />
		<path id="Форма 52" d="M39 28.3198C39.012 28.3198 39.012 28.3318 39.012 28.3318C39.012 28.3318 39 28.3318 39 28.3198Z" fill="currentColor" fill-rule="nonzero" />
		<path id="Форма 53" d="M39.2158 28.7402C39.2158 28.7522 39.2158 28.7642 39.2158 28.7762C39.2158 28.7642 39.2158 28.7522 39.2158 28.7402Z" fill="currentColor" fill-rule="nonzero" />
		<path id="Форма 54" d="M39.1802 28.5962C39.1802 28.6082 39.1922 28.6202 39.1922 28.6442C39.1922 28.6202 39.1922 28.6082 39.1802 28.5962Z" fill="currentColor" fill-rule="nonzero" />
		<path id="Форма 55" d="M38.856 28.2119C38.88 28.2239 38.892 28.2359 38.916 28.2479C38.892 28.2359 38.868 28.2239 38.856 28.2119Z" fill="currentColor" fill-rule="nonzero" />
		<path id="Форма 56" d="M39.1201 28.4761C39.1321 28.4881 39.1321 28.5001 39.1321 28.5121C39.1321 28.5001 39.1321 28.4881 39.1201 28.4761Z" fill="currentColor" fill-rule="nonzero" />
		<path id="Форма 57" d="M39.1558 28.5361C39.1678 28.5481 39.1678 28.5601 39.1678 28.5721C39.1678 28.5601 39.1558 28.5481 39.1558 28.5361Z" fill="currentColor" fill-rule="nonzero" />
		<path id="Форма 58" d="M39.084 28.4282C39.084 28.4402 39.096 28.4402 39.096 28.4522C39.096 28.4402 39.096 28.4282 39.084 28.4282Z" fill="currentColor" fill-rule="nonzero" />
		<path id="Форма 59" d="M39.2281 38.7959C39.2161 39.0359 39.0841 39.2759 38.8561 39.3959L37.7881 39.9839L37.7881 43.0559L39.2281 42.2639L39.2281 38.7959Z" fill="currentColor" fill-rule="nonzero" />
		<path id="Форма 60" d="M39.0479 28.3682C39.0479 28.3802 39.0599 28.3802 39.0599 28.3922C39.0599 28.3802 39.0479 28.3802 39.0479 28.3682Z" fill="currentColor" fill-rule="nonzero" />
		<path id="Форма 61" d="M24.5161 14.6399L18.6841 17.5439C18.6241 17.5799 18.5641 17.6159 18.5161 17.6639L24.7561 14.5679C24.6601 14.5799 24.5881 14.6039 24.5161 14.6399Z" fill="currentColor" fill-rule="nonzero" />
		<path id="Форма 62" d="M44.2078 26.4719C44.1358 26.4119 44.0638 26.3399 44.0158 26.2439C43.8238 25.8959 43.9558 25.4519 44.3038 25.2719L44.6758 25.1159C44.6758 25.1159 44.3278 24.8759 43.8838 24.6719L26.4478 15.3359L24.8638 16.1159L43.9198 26.3159L44.2078 26.4719Z" fill="currentColor" fill-rule="nonzero" />
		<path id="Форма 63" d="M39.2278 34.0439C39.2278 33.9239 39.2038 33.8039 39.1438 33.6959C38.9518 33.3479 38.5198 33.2159 38.1718 33.4079L37.7998 33.6119L23.9158 41.2079L1.95581 30.9719C1.59581 30.8039 1.16381 30.9599 0.995814 31.3199C0.827814 31.6799 0.983814 32.1119 1.34381 32.2799L23.6158 42.6719C23.7118 42.7199 23.8198 42.7439 23.9158 42.7439C24.0358 42.7439 24.1558 42.7199 24.2638 42.6599L37.7758 35.2679L38.8438 34.6799C39.0958 34.5479 39.2278 34.2959 39.2278 34.0439Z" fill="currentColor" fill-rule="nonzero" />
		<path id="Форма 64" d="M39.2278 38.7962C39.2278 38.7842 39.2278 38.7602 39.2278 38.7482C39.2278 38.6402 39.1918 38.5322 39.1438 38.4362C38.9518 38.0882 38.5198 37.9562 38.1718 38.1482L37.7998 38.3522L23.9158 45.9482L1.95581 35.6882C1.59581 35.5202 1.16381 35.6762 0.995814 36.0362C0.827814 36.3962 0.983814 36.8282 1.34381 36.9962L23.6158 47.4002C23.7118 47.4482 23.8198 47.4722 23.9158 47.4722C24.0358 47.4722 24.1558 47.4482 24.2638 47.3882L37.7758 39.9962L38.8438 39.4082C39.0838 39.2762 39.2158 39.0362 39.2278 38.7962Z" fill="currentColor" fill-rule="nonzero" />
	</g>
</svg>
