<svg viewBox="0 0 80 80" xmlns="http://www.w3.org/2000/svg" xmlns:xlink="http://www.w3.org/1999/xlink" width="80" height="80" fill="none">
	<rect width="80" height="80" x="0" y="0" />
	<g>
		<path d="M56.1599 57.76L23.3279 57.76C22.8319 57.76 22.3839 57.424 22.2559 56.944C22.1279 56.4641 22.3199 55.952 22.7519 55.68C23.0879 55.4721 23.3439 55.2961 23.5359 55.1361L23.5519 55.12C24.1279 54.6721 24.4159 54.32 24.5599 54.08C24.5759 54.016 24.5919 53.9361 24.6079 53.8721C24.6399 53.76 24.6559 53.6481 24.6879 53.5681C24.7039 53.536 24.7039 53.5041 24.7039 53.4881C24.7359 53.376 24.7679 53.2801 24.8319 53.1841C25.1039 52.7201 25.4879 52.3361 25.9679 52.0001C26.2559 51.8081 26.5119 51.6001 26.7039 51.4241C26.7359 51.3921 26.7519 51.3761 26.7839 51.3601C27.1359 51.0881 27.5039 50.7521 27.8879 50.4001C28.3359 49.9841 28.7839 49.6161 29.1999 49.3281C29.6159 49.0401 30.0959 48.784 30.6719 48.5601C31.0239 48.4161 31.3279 48.2401 31.5519 48.048C31.9519 47.6641 32.3679 47.0881 32.7999 46.3361C32.8159 46.304 32.8319 46.272 32.8479 46.2561C33.1039 45.8881 33.3439 45.4721 33.5359 45.024C33.7599 44.512 34.0319 44.016 34.3039 43.536C34.6399 42.896 35.0079 42.24 35.4239 41.552C35.8559 40.8321 36.2079 40.2401 36.5119 39.696C36.5279 39.664 36.5599 39.632 36.5759 39.6C36.9439 39.0881 37.3599 38.512 37.7919 37.888C38.2399 37.248 38.6559 36.688 39.0239 36.16C39.0399 36.144 39.0399 36.128 39.0559 36.112C39.5199 35.5201 40.0319 34.864 40.6079 34.144C41.1839 33.424 41.7439 32.752 42.2879 32.176C43.1519 31.264 44.2079 30.288 45.4559 29.28C45.9679 28.848 46.5599 28.416 47.1679 28.016C47.7119 27.664 48.1759 27.28 48.5439 26.896C48.7679 26.672 49.0079 26.352 49.2799 25.984C49.6639 25.424 50.0479 24.992 50.4799 24.688C50.4959 24.672 50.5119 24.672 50.5279 24.656C50.9759 24.368 51.5039 24.096 52.0799 23.872C52.6879 23.632 53.1519 23.472 53.5519 23.36C53.5839 23.344 53.6319 23.344 53.6639 23.328C53.9839 23.28 54.3359 23.232 54.7199 23.184C55.0079 23.152 55.2959 23.12 55.5679 23.072C55.6479 23.056 55.7599 23.04 55.9359 23.008L56.7519 21.68L58.0959 19.392C58.1279 19.328 58.1599 19.28 58.2079 19.232L59.3119 17.952C59.4239 17.824 59.5679 17.728 59.7119 17.648L60.2239 17.424C60.5919 17.264 61.0079 17.312 61.3279 17.536C61.4879 17.648 61.6159 17.808 61.6959 18C61.9839 17.68 62.4479 17.552 62.8639 17.696C63.3119 17.84 63.6159 18.24 63.6319 18.72L63.6799 19.824L63.7759 21.664C63.7759 21.76 63.7759 21.856 63.7599 21.952L63.4559 23.456C63.4559 23.488 63.4399 23.504 63.4399 23.536C64.0479 24.096 64.5759 24.592 64.7999 24.784C65.1199 25.0401 65.4559 25.312 65.8239 25.568C66.2879 25.904 66.6719 26.224 66.9919 26.544C67.2639 26.8 67.5359 27.104 67.7759 27.472C67.9199 27.68 68.0799 27.856 68.2079 28C68.3679 28.112 68.5599 28.2561 68.7519 28.384C68.9759 28.544 69.2159 28.7201 69.4719 28.896L70.0319 29.296C70.3039 29.488 70.5439 29.664 70.7359 29.808C71.3279 30.24 71.8879 30.72 72.3999 31.248C72.9279 31.792 73.3439 32.224 73.7279 32.592C74.0319 32.864 74.3679 33.168 74.7199 33.488L75.1359 33.856C75.6639 34.336 76.1439 34.8321 76.5599 35.36C76.5599 35.376 76.5759 35.376 76.5759 35.392C76.7039 35.552 76.8799 35.7281 77.1199 35.92C77.5679 36.272 77.9039 36.672 78.1279 37.104C78.4959 37.76 78.7679 38.528 78.9599 39.344C79.3279 40.528 79.4079 41.232 79.2639 41.76C79.2639 41.776 79.1839 42.096 79.2159 43.36C79.2159 43.488 79.1999 43.6161 79.1679 43.728C78.8959 44.576 78.3519 45.264 77.5839 45.712C77.2639 45.904 76.8799 46.048 76.4159 46.128C76.2079 46.16 76.0319 46.208 75.8879 46.256C75.7919 46.304 75.6799 46.368 75.5519 46.448C75.3919 46.544 75.2319 46.64 75.0719 46.72C75.0399 46.736 74.9919 46.7521 74.9599 46.768C73.9039 47.184 72.9279 47.264 72.0799 47.024C72.0479 47.008 71.9999 47.008 71.9679 46.992C71.5679 46.832 71.1839 46.544 70.7839 46.064C70.4959 45.808 70.2879 45.488 70.1759 45.072C70.1759 45.056 70.1599 45.04 70.1599 45.024C70.1279 45.008 70.0639 44.9761 69.9839 44.96C69.8559 44.928 69.7599 44.896 69.6479 44.864C69.4879 44.816 69.3439 44.768 69.2159 44.736C69.1839 44.72 69.1679 44.72 69.1359 44.704C68.1759 44.304 67.2159 43.968 66.2719 43.664C65.8719 43.584 65.4399 43.488 64.9759 43.36C64.6239 43.264 64.2879 43.2001 63.9679 43.184C63.7119 43.232 63.2799 43.328 62.7359 43.456C62.4959 43.536 62.1919 43.648 61.8239 43.824C61.2639 44.064 60.9759 44.176 60.7359 44.208C60.6719 44.224 60.5439 44.24 59.9039 44.32C59.8559 44.528 59.8079 44.6721 59.7759 44.784C59.7439 44.896 59.6799 45.008 59.6159 45.104C59.5519 45.184 59.4879 45.28 59.4239 45.392C59.3919 45.456 59.3759 45.488 59.3599 45.52C59.2959 45.936 59.2799 46.4 59.3119 46.896C59.3599 47.616 59.3439 48.24 59.2639 48.768C59.1679 49.376 59.0399 50.016 58.8639 50.736C58.7999 50.976 58.7519 51.232 58.6879 51.456C58.5919 51.856 58.4959 52.224 58.4159 52.576C58.3999 52.624 58.3999 52.656 58.3839 52.704C58.2399 53.104 58.0799 53.584 57.9039 54.192C57.7439 54.688 57.6159 55.184 57.5039 55.696C57.5039 55.712 57.5039 55.728 57.4879 55.728C57.3919 56.064 57.3119 56.432 57.2159 56.88C57.1359 57.3921 56.6879 57.76 56.1599 57.76ZM26.2879 55.5201L55.2639 55.5201C55.2959 55.408 55.3279 55.2961 55.3439 55.184C55.4719 54.624 55.6159 54.08 55.7919 53.536C55.9839 52.9281 56.1439 52.432 56.2879 52.016C56.3679 51.664 56.4479 51.312 56.5439 50.9281C56.6079 50.688 56.6559 50.4481 56.7199 50.1921C56.8799 49.536 57.0079 48.9441 57.0719 48.4321C57.1199 48.0641 57.1359 47.5681 57.1039 47.008C57.0559 46.2881 57.1039 45.6161 57.1999 45.008C57.2159 44.9601 57.2159 44.912 57.2319 44.8641C57.2799 44.688 57.3759 44.5121 57.5039 44.272C57.5679 44.16 57.6319 44.0641 57.6959 43.9681C57.7439 43.8081 57.8079 43.5201 57.9199 43.0401C58.0319 42.5761 58.4159 42.2401 58.8799 42.1761C59.3119 42.1281 60.1919 42.0161 60.3679 42.0001C60.4159 41.9841 60.5599 41.9361 60.9279 41.7761C61.3919 41.5681 61.7759 41.4081 62.1119 41.3121C62.1439 41.2961 62.1759 41.2961 62.1919 41.2961C62.9279 41.1201 63.4239 41.0081 63.7279 40.9601C63.8079 40.9441 63.8879 40.9441 63.9839 40.9441C64.4959 40.9761 65.0239 41.0561 65.5519 41.2001C65.9839 41.3121 66.3999 41.4081 66.7679 41.4881C66.7999 41.4881 66.8479 41.5041 66.8799 41.5201C67.9039 41.8401 68.9279 42.2081 69.9519 42.6241C70.0479 42.6561 70.1759 42.688 70.3039 42.7361C70.3999 42.7681 70.5119 42.8001 70.6239 42.8321C71.0879 42.9601 71.4719 43.1841 71.7599 43.4721C71.7759 43.4881 71.7919 43.5041 71.8079 43.5201C72.0319 43.7601 72.1919 44.0641 72.3039 44.4481C72.3519 44.496 72.3999 44.5281 72.4319 44.576C72.6079 44.784 72.7039 44.8801 72.7679 44.912C73.1199 44.9761 73.5679 44.912 74.0799 44.72C74.1919 44.6561 74.3039 44.592 74.4159 44.528C74.5759 44.432 74.7199 44.352 74.8479 44.288L74.8959 44.256C74.9439 44.224 74.9919 44.208 75.0399 44.192C75.3279 44.08 75.6479 44 76.0479 43.936C76.2719 43.904 76.3839 43.856 76.4479 43.808C76.7039 43.648 76.8799 43.472 76.9919 43.232C76.9599 42 77.0399 41.504 77.1199 41.2C77.1199 41.12 77.0879 40.8 76.8319 39.984C76.8159 39.952 76.8159 39.92 76.8159 39.904C76.6719 39.264 76.4479 38.688 76.1759 38.176C76.1599 38.16 76.1439 38.128 76.1439 38.112C76.0799 37.984 75.9519 37.84 75.7759 37.696C75.3919 37.392 75.0719 37.072 74.8319 36.752C74.4959 36.336 74.1119 35.92 73.6799 35.536L73.2639 35.168C72.9119 34.848 72.5759 34.544 72.2559 34.256C72.2399 34.24 72.2239 34.224 72.2079 34.224C71.8079 33.824 71.3759 33.392 70.8159 32.816C70.3999 32.384 69.9519 32 69.4719 31.648C69.2799 31.504 69.0399 31.344 68.7679 31.152L68.2079 30.752C67.9519 30.576 67.7119 30.4 67.4719 30.24C67.2479 30.08 67.0559 29.936 66.8799 29.824C66.8479 29.792 66.7999 29.76 66.7679 29.728C66.4959 29.472 66.2239 29.168 65.9519 28.8L65.9359 28.784C65.7759 28.56 65.6159 28.352 65.4719 28.224C65.4559 28.208 65.4559 28.208 65.4399 28.192C65.1999 27.952 64.8799 27.696 64.5279 27.44C64.1119 27.152 63.7119 26.848 63.3599 26.544L63.3439 26.528C63.0879 26.304 62.5279 25.792 61.3439 24.688C60.9919 24.368 60.8959 23.856 61.0719 23.424L61.2799 22.944L61.2959 22.864C61.0079 23.216 60.5119 23.36 60.0799 23.2C59.6159 23.04 59.2959 22.592 59.3279 22.096L59.3439 21.76L58.6879 22.896C58.6879 22.896 58.6879 22.912 58.6719 22.912L57.5839 24.688C57.4079 24.96 57.1359 25.152 56.8159 25.216C56.3519 25.296 56.0639 25.344 55.9199 25.36C55.6159 25.408 55.2799 25.456 54.9439 25.488C54.6399 25.52 54.3519 25.552 54.0959 25.6C53.7759 25.696 53.3919 25.824 52.8799 26.016C52.4479 26.176 52.0799 26.368 51.7759 26.56C51.5679 26.72 51.3439 26.96 51.1199 27.296C50.7839 27.792 50.4479 28.208 50.1279 28.528C49.6479 29.008 49.0719 29.488 48.3999 29.936C47.8399 30.304 47.3279 30.688 46.8639 31.072C45.6959 32.016 44.7039 32.928 43.9039 33.776C43.4079 34.304 42.8799 34.912 42.3519 35.6C41.7919 36.304 41.2799 36.944 40.8319 37.52C40.4639 38.048 40.0479 38.608 39.6159 39.232C39.1839 39.84 38.7839 40.4 38.4159 40.912C38.1119 41.456 37.7599 42.048 37.3279 42.752C36.9439 43.408 36.5759 44.048 36.2559 44.64C36.2399 44.656 36.2399 44.672 36.2239 44.704C35.9839 45.104 35.7599 45.536 35.5519 45.984C35.2959 46.544 35.0079 47.072 34.6719 47.552C34.1279 48.48 33.5839 49.216 33.0239 49.744C33.0079 49.76 33.0079 49.76 32.9919 49.776C32.5759 50.144 32.0479 50.464 31.4399 50.704C31.0399 50.864 30.7039 51.04 30.4319 51.232C30.4159 51.232 30.4159 51.248 30.3999 51.248C30.0799 51.472 29.7279 51.744 29.3599 52.096C28.9439 52.48 28.5439 52.832 28.1439 53.152C27.8719 53.408 27.5359 53.664 27.1519 53.936C26.9919 54.048 26.8479 54.176 26.7519 54.304C26.7359 54.352 26.7199 54.416 26.7039 54.48C26.6559 54.656 26.6239 54.8 26.5759 54.96C26.5599 55.04 26.5279 55.104 26.4799 55.184C26.4959 55.216 26.3999 55.3601 26.2879 55.5201Z" fill="currentColor" fill-rule="nonzero" />
	</g>
	<g>
		<path d="M48.752 23.5359L29.184 23.5359C28.56 23.5359 28.064 23.0399 28.064 22.4159C28.064 21.7919 28.56 21.2959 29.184 21.2959L48.736 21.2959C49.36 21.2959 49.856 21.7919 49.856 22.4159C49.856 23.0399 49.36 23.5359 48.752 23.5359Z" fill="currentColor" fill-rule="nonzero" />
	</g>
	<g>
		<path d="M40.3199 29.136L20.7679 29.136C20.1439 29.136 19.6479 28.64 19.6479 28.016C19.6479 27.392 20.1439 26.896 20.7679 26.896L40.3199 26.896C40.9439 26.896 41.4399 27.392 41.4399 28.016C41.4399 28.64 40.9439 29.136 40.3199 29.136Z" fill="currentColor" fill-rule="nonzero" />
	</g>
	<g>
		<path d="M36.1119 34.72L17.3759 34.72C16.7519 34.72 16.2559 34.224 16.2559 33.6C16.2559 32.976 16.7519 32.48 17.3759 32.48L36.1119 32.48C36.7359 32.48 37.2319 32.976 37.2319 33.6C37.2319 34.224 36.7359 34.72 36.1119 34.72Z" fill="currentColor" fill-rule="nonzero" />
	</g>
	<g>
		<path d="M31.5039 40.304L13.5839 40.304C12.9599 40.304 12.4639 39.808 12.4639 39.184C12.4639 38.56 12.9599 38.064 13.5839 38.064L31.5039 38.064C32.1279 38.064 32.6239 38.56 32.6239 39.184C32.6239 39.808 32.1119 40.304 31.5039 40.304Z" fill="currentColor" fill-rule="nonzero" />
	</g>
	<g>
		<path d="M27.5682 45.9041L10.3202 45.9041C9.69619 45.9041 9.2002 45.4081 9.2002 44.7841C9.2002 44.1601 9.69619 43.6641 10.3202 43.6641L27.5682 43.6641C28.1922 43.6641 28.6882 44.1601 28.6882 44.7841C28.6882 45.4081 28.1762 45.9041 27.5682 45.9041Z" fill="currentColor" fill-rule="nonzero" />
	</g>
	<g>
		<path d="M21.0398 51.488L4.06385 51.488C3.43985 51.488 2.94385 50.992 2.94385 50.368C2.94385 49.744 3.43985 49.248 4.06385 49.248L21.0398 49.248C21.6638 49.248 22.1598 49.744 22.1598 50.368C22.1598 50.992 21.6638 51.488 21.0398 51.488Z" fill="currentColor" fill-rule="nonzero" />
	</g>
	<g>
		<path d="M15.3441 57.0881L1.76014 57.0881C1.13614 57.0881 0.640137 56.5921 0.640137 55.9681C0.640137 55.3441 1.13614 54.8481 1.76014 54.8481L15.3441 54.8481C15.9681 54.8481 16.4641 55.3441 16.4641 55.9681C16.4641 56.5921 15.9521 57.0881 15.3441 57.0881Z" fill="currentColor" fill-rule="nonzero" />
	</g>
</svg>
