<svg viewBox="0 0 60 60" xmlns="http://www.w3.org/2000/svg" xmlns:xlink="http://www.w3.org/1999/xlink" width="60.000000" height="60.000000" fill="none">
	<rect id="service 1" width="60.000000" height="60.000000" x="0.000000" y="0.000000" />
	<g id="Сочетание 142">
		<path id="Форма 65" d="M18.0609 19.9594L22.6024 15.698C22.8904 15.4278 23.3423 15.44 23.6152 15.7253L23.9799 16.1064C24.0747 15.7638 24.0433 15.4092 24.0168 15.1188C23.9877 14.7992 23.9625 14.5233 24.0695 14.3341C25.9151 11.0683 29.3027 10.3828 31.8195 10.3828C32.3812 10.3828 32.9665 10.4161 33.5593 10.482C33.7539 10.5034 33.9489 10.4449 34.0993 10.3197C34.2498 10.1946 34.3428 10.0135 34.3569 9.81813C34.4293 8.81445 32.7574 7.94457 29.2453 7.15905C28.7824 7.05549 28.2891 7.00293 27.7791 7.00293C24.4253 7.00293 21.1792 9.23853 21.0426 9.33369C21.0141 9.35361 20.9871 9.37557 20.9616 9.39933L11.8097 17.9857L10.2352 17.452C9.98342 17.3667 9.70514 17.4271 9.51134 17.6089L6.13706 20.7748C5.84702 21.047 5.8325 21.5025 6.10466 21.7926L12.3004 28.3962C12.4421 28.5471 12.6335 28.6236 12.8256 28.6236C13.0013 28.6236 13.1773 28.5596 13.3161 28.4306C13.3404 28.4079 15.757 26.1583 16.5486 25.4371C17.0043 25.0222 16.8268 24.4032 16.6702 23.8569C16.6335 23.7289 16.5786 23.5376 16.5528 23.4054C17.1831 22.794 17.7189 22.2705 18.2038 21.7969C18.3084 21.6946 18.4104 21.5949 18.5106 21.4971L18.0256 20.9744C17.7563 20.6839 17.772 20.2305 18.0609 19.9594ZM22.8157 13.6255C22.4875 14.2063 22.5425 14.8092 22.5827 15.2495C22.5963 15.3977 22.6162 15.617 22.5979 15.7017C20.0651 17.9653 18.9847 19.0207 17.1976 20.7667C16.6751 21.2772 16.0932 21.8456 15.3973 22.52C14.9213 22.9817 15.1151 23.6575 15.2861 24.2537C15.3124 24.3452 15.3465 24.4641 15.3708 24.5629C14.7225 25.158 13.5425 26.2537 12.8603 26.8879L7.64762 21.3323L10.182 18.9545L11.7565 19.4882C12.0084 19.5734 12.2866 19.5132 12.4804 19.3312L21.9054 10.4887C22.2701 10.2455 25.0655 8.44305 27.7792 8.44305C28.1836 8.44305 28.5712 8.48397 28.9312 8.56449C29.5936 8.71257 30.1494 8.85561 30.6155 8.99025C27.0576 9.27753 24.3756 10.8653 22.8157 13.6255Z" fill="currentColor" fill-rule="nonzero" />
		<path id="Форма 66" d="M26.5452 28.0399L19.5683 20.5197L23.0679 17.236L29.9916 24.4699L30.9925 23.4331L23.9799 16.1062L23.6152 15.7251C23.3423 15.4399 22.8904 15.4276 22.6024 15.6979L18.0609 19.9593C17.772 20.2304 17.7563 20.6838 18.0257 20.974L18.5107 21.4968L25.5434 29.0773L26.5452 28.0399Z" fill="currentColor" fill-rule="nonzero" />
		<path id="Форма 67" d="M37.1982 31.9997L51.1855 46.6134L47.2641 50.3728L33.639 35.6866L32.6372 36.7241L46.7062 51.8889C46.8375 52.0303 47.02 52.1131 47.213 52.1188C47.2201 52.119 47.227 52.1191 47.2341 52.1191C47.4195 52.1191 47.5981 52.0475 47.7324 51.9189L52.7012 47.1552C52.9881 46.8802 52.998 46.4248 52.7232 46.1377L38.1991 30.9629L37.1982 31.9997Z" fill="currentColor" fill-rule="nonzero" />
		<path id="Форма 68" d="M51.7913 20.9448C54.2313 18.4135 54.7883 14.6138 53.1771 11.4895C53.0707 11.2831 52.8713 11.1408 52.6416 11.107C52.4112 11.0733 52.1799 11.1526 52.0188 11.3197L47.6834 15.8173C47.3287 16.1851 46.8519 16.3878 46.3409 16.3878C45.8562 16.3878 45.3969 16.2025 45.0477 15.866C44.6897 15.5206 44.4875 15.0565 44.4783 14.5587C44.4693 14.061 44.6545 13.5896 45 13.2312L49.2469 8.82427C49.4124 8.65255 49.4821 8.41003 49.4331 8.17663C49.3841 7.94323 49.2225 7.74907 49.0019 7.65871C48.0086 7.25107 46.9585 7.04443 45.8807 7.04443C43.632 7.04443 41.5345 7.93567 39.9747 9.55387C37.7333 11.8794 37.0766 15.3415 38.2698 18.3135L20.1613 37.0717C19.2695 36.7496 18.335 36.5868 17.3765 36.5868C15.1274 36.5868 13.0295 37.4781 11.4689 39.0969C9.02974 41.628 8.47318 45.4276 10.0838 48.5521C10.1903 48.7586 10.3896 48.9009 10.6194 48.9346C10.8493 48.9687 11.081 48.8892 11.2422 48.722L15.578 44.2238C15.9321 43.8562 16.4085 43.6538 16.9195 43.6538C17.4043 43.6538 17.8635 43.8391 18.2126 44.1757C18.9525 44.8886 18.974 46.0708 18.2609 46.811L14.0137 51.217C13.8482 51.3889 13.7784 51.6314 13.8275 51.8648C13.8765 52.0982 14.0381 52.2922 14.2587 52.3827C15.252 52.7902 16.302 52.997 17.3798 52.997C19.6287 52.997 21.7263 52.1056 23.2859 50.4874C25.4437 48.2496 26.1419 44.9988 25.1256 42.0867L43.4635 23.0914C44.2463 23.3328 45.0584 23.4548 45.8843 23.4548C48.1333 23.4548 50.2313 22.5634 51.7913 20.9448ZM23.6249 42.1918C24.6601 44.6838 24.1201 47.5474 22.2491 49.4878C20.9633 50.822 19.2339 51.5569 17.3797 51.5569C16.8612 51.5569 16.3506 51.4989 15.8525 51.3841L19.2975 47.8101C20.5617 46.498 20.5231 44.4026 19.2117 43.1386C18.5929 42.5421 17.7788 42.2137 16.9193 42.2137C16.0135 42.2137 15.1688 42.5726 14.5409 43.2244L10.9607 46.9388C10.1688 44.5758 10.737 41.9313 12.5054 40.0963C13.7921 38.7618 15.522 38.0269 17.3763 38.0269C18.3068 38.0269 19.2096 38.2129 20.0593 38.5795C20.3346 38.6983 20.6544 38.6341 20.8626 38.4184L39.6403 18.9672C39.8487 18.7513 39.9014 18.4287 39.7725 18.1578C38.5686 15.6273 39.0665 12.5714 41.0114 10.5535C42.2972 9.21943 44.0264 8.48479 45.8804 8.48479C46.3989 8.48479 46.9098 8.54263 47.4079 8.65759L43.9631 12.2322C43.3507 12.8672 43.0224 13.7029 43.0385 14.5851C43.0546 15.4676 43.4131 16.2907 44.0484 16.9029C44.6673 17.4994 45.4814 17.828 46.3409 17.8279C47.2465 17.8279 48.0914 17.4688 48.7201 16.8169L52.3002 13.1028C53.0922 15.4656 52.5238 18.11 50.7545 19.9453C49.4683 21.2797 47.7386 22.0147 45.8843 22.0147C45.0707 22.0147 44.2733 21.8712 43.5143 21.588C43.2463 21.4879 42.9437 21.5564 42.7447 21.7624L23.7717 41.4156C23.5725 41.622 23.5148 41.927 23.6249 42.1918Z" fill="currentColor" fill-rule="nonzero" />
	</g>
</svg>
