<svg viewBox="0 0 60 60" xmlns="http://www.w3.org/2000/svg" xmlns:xlink="http://www.w3.org/1999/xlink" width="60.000000" height="60.000000" fill="none">
	<rect id="testdrive 1" width="60.000000" height="60.000000" x="0.000000" y="0.000000" />
	<path id="Форма 19" d="M48.0719 11.9279C43.2479 7.10394 36.8279 4.43994 29.9999 4.43994C23.1719 4.43994 16.7519 7.10394 11.9279 11.9279C7.10394 16.7519 4.43994 23.1719 4.43994 29.9999C4.43994 36.8279 7.10394 43.2479 11.9279 48.0719C16.7519 52.8959 23.1719 55.5599 29.9999 55.5599C36.8279 55.5599 43.2479 52.9079 48.0719 48.0719C52.8959 43.2479 55.5599 36.8279 55.5599 29.9999C55.5599 23.1719 52.8959 16.7519 48.0719 11.9279ZM29.9999 54.1199C16.7039 54.1199 5.87994 43.3079 5.87994 29.9999C5.87994 16.6919 16.7039 5.87994 29.9999 5.87994C43.2959 5.87994 54.1199 16.6919 54.1199 29.9999C54.1199 43.3079 43.2959 54.1199 29.9999 54.1199Z" fill="currentColor" fill-rule="nonzero" />
	<path id="Форма 20" d="M49.7758 27.684C49.7038 27.108 49.6198 26.544 49.4998 25.992C46.9798 24.948 40.0918 22.56 29.9878 22.704C19.8598 22.848 12.9838 25.008 10.5118 25.92C10.4038 26.46 10.3078 27.012 10.2358 27.576C11.3638 27.108 18.6838 24.3 30.0118 24.144C41.3998 23.976 48.7438 27.204 49.7758 27.684Z" fill="currentColor" fill-rule="nonzero" />
	<path id="Форма 21" d="M28.0918 45.1202C27.8398 42.3722 26.8438 38.3882 23.4838 34.9802C20.1238 31.5722 16.4638 30.6122 13.9798 30.4082C12.2758 30.2642 10.8958 30.4562 10.0918 30.6122C10.1038 31.1042 10.1398 31.5842 10.1878 32.0642C11.7838 31.7162 17.4838 30.9362 22.4638 35.9882C24.8998 38.4602 26.3158 41.5682 26.6518 45.1922C26.8438 47.1962 26.6278 48.8162 26.5078 49.5602C26.4958 49.5722 26.4718 49.5842 26.4598 49.5842C26.9398 49.6682 27.4318 49.7402 27.9358 49.7882C28.0798 48.9722 28.2838 47.2562 28.0918 45.1202Z" fill="currentColor" fill-rule="nonzero" />
	<path id="Форма 22" d="M33.384 45.2038C33.72 41.5678 35.136 38.4718 37.572 35.9998C40.008 33.5278 42.876 32.1358 46.104 31.8598C47.784 31.7158 49.128 31.9198 49.812 32.0758C49.86 31.5958 49.896 31.1158 49.908 30.6238C49.092 30.4678 47.724 30.2878 46.056 30.4198C43.572 30.6238 39.912 31.5838 36.552 34.9918C33.192 38.3998 32.196 42.3838 31.944 45.1318C31.752 47.2678 31.968 48.9838 32.112 49.8118C32.592 49.7638 33.072 49.6918 33.54 49.6078C33.408 48.8758 33.192 47.2318 33.384 45.2038Z" fill="currentColor" fill-rule="nonzero" />
	<path id="Форма 23" d="M34.8719 30.7079C34.8719 28.0199 32.6879 25.8359 29.9999 25.8359C27.3119 25.8359 25.1279 28.0199 25.1279 30.7079C25.1279 33.3959 27.3119 35.5799 29.9999 35.5799C32.6879 35.5799 34.8719 33.3839 34.8719 30.7079ZM29.9999 34.1279C28.1039 34.1279 26.5679 32.5919 26.5679 30.6959C26.5679 28.7999 28.1039 27.2639 29.9999 27.2639C31.8959 27.2639 33.4319 28.7999 33.4319 30.6959C33.4319 32.5919 31.8959 34.1279 29.9999 34.1279Z" fill="currentColor" fill-rule="nonzero" />
	<path id="Форма 24" d="M29.9999 8.65186C18.2279 8.65186 8.65186 18.2279 8.65186 29.9999C8.65186 41.7719 18.2279 51.3479 29.9999 51.3479C35.6999 51.3479 41.0639 49.1279 45.0959 45.0959C49.1279 41.0639 51.3479 35.6999 51.3479 29.9999C51.3479 18.2279 41.7719 8.65186 29.9999 8.65186ZM44.0759 44.0759C41.1599 46.9919 37.4999 48.8879 33.5279 49.5959C33.0599 49.6799 32.5799 49.7519 32.0999 49.7999C31.4039 49.8719 30.7079 49.9079 29.9999 49.9079C29.3039 49.9079 28.6079 49.8719 27.9359 49.7999C27.4439 49.7519 26.9519 49.6799 26.4599 49.5959C17.8319 48.0359 11.1119 40.9079 10.1999 32.0759C10.1519 31.5959 10.1159 31.1159 10.1039 30.6239C10.0919 30.4199 10.0919 30.2039 10.0919 29.9999C10.0919 29.1839 10.1399 28.3679 10.2359 27.5759C10.3079 27.0119 10.3919 26.4719 10.5119 25.9199C12.3959 16.8959 20.4239 10.0919 29.9999 10.0919C39.5999 10.0919 47.6399 16.9319 49.4999 25.9919C49.6199 26.5439 49.7039 27.1079 49.7759 27.6839C49.8599 28.4399 49.9079 29.2199 49.9079 29.9999C49.9079 30.2039 49.9079 30.4079 49.8959 30.6119C49.8839 31.1039 49.8479 31.5839 49.7999 32.0639C49.3439 36.5999 47.3519 40.8119 44.0759 44.0759Z" fill="currentColor" fill-rule="nonzero" />
</svg>
